<svg width="32" height="32" viewBox="0 0 32 32" fill="none" xmlns="http://www.w3.org/2000/svg">
<path d="M28.5918 30.9999H3.40715C2.76882 30.9991 2.15685 30.745 1.70558 30.2936C1.25431 29.8421 1.00057 29.2299 1 28.5916V3.40826C1.00057 2.76993 1.25431 2.15776 1.70558 1.7063C2.15685 1.25483 2.76882 1.00079 3.40715 0.999931H28.5876C29.2262 1.00135 29.8383 1.25537 30.2903 1.70656C30.7423 2.15775 30.9974 2.76961 31 3.40826V28.5916C30.9994 29.2301 30.7455 29.8423 30.294 30.2938C29.8425 30.7453 29.2303 30.9994 28.5918 30.9999V30.9999ZM3.40715 3.40378V28.5874H28.5876V3.40378H3.40715Z" fill="black"/>
<path d="M23.3539 14.8099H17.2181V8.67407C17.2182 8.51591 17.1872 8.35927 17.1267 8.21312C17.0662 8.06697 16.9776 7.93417 16.8657 7.82233C16.7539 7.71049 16.6211 7.62181 16.4749 7.56135C16.3288 7.50089 16.1721 7.46984 16.014 7.46998V7.46998C15.8558 7.46984 15.6992 7.50089 15.553 7.56135C15.4069 7.62181 15.2741 7.71049 15.1622 7.82233C15.0504 7.93417 14.9617 8.06697 14.9012 8.21312C14.8408 8.35927 14.8097 8.51591 14.8099 8.67407V14.8099H8.64062C8.48246 14.8097 8.32582 14.8408 8.17967 14.9012C8.03351 14.9617 7.90072 15.0504 7.78888 15.1622C7.67704 15.2741 7.58835 15.4069 7.52789 15.553C7.46743 15.6992 7.43638 15.8558 7.43652 16.014V16.014C7.43638 16.1721 7.46743 16.3288 7.52789 16.4749C7.58835 16.6211 7.67704 16.7539 7.78888 16.8657C7.90072 16.9775 8.03351 17.0662 8.17967 17.1267C8.32582 17.1872 8.48246 17.2182 8.64062 17.2181H14.8099V23.3161C14.8097 23.4743 14.8408 23.6309 14.9012 23.7771C14.9617 23.9232 15.0504 24.056 15.1622 24.1679C15.2741 24.2797 15.4069 24.3684 15.553 24.4289C15.6992 24.4893 15.8558 24.5204 16.014 24.5202V24.5202C16.1721 24.5204 16.3288 24.4893 16.4749 24.4289C16.6211 24.3684 16.7539 24.2797 16.8657 24.1679C16.9776 24.056 17.0662 23.9232 17.1267 23.7771C17.1872 23.6309 17.2182 23.4743 17.2181 23.3161V17.2181H23.3539C23.5121 17.2182 23.6687 17.1872 23.8149 17.1267C23.961 17.0662 24.0938 16.9775 24.2056 16.8657C24.3175 16.7539 24.4062 16.6211 24.4666 16.4749C24.5271 16.3288 24.5581 16.1721 24.558 16.014V16.014C24.5581 15.8558 24.5271 15.6992 24.4666 15.553C24.4062 15.4069 24.3175 15.2741 24.2056 15.1622C24.0938 15.0504 23.961 14.9617 23.8149 14.9012C23.6687 14.8408 23.5121 14.8097 23.3539 14.8099V14.8099Z" fill="black"/>
</svg>
