<svg width="32" height="32" viewBox="0 0 32 32" fill="none" xmlns="http://www.w3.org/2000/svg">
<path d="M8.5335 15.2666C6.9871 15.2666 5.7335 14.013 5.7335 12.4666C5.7335 10.9202 6.9871 9.66663 8.5335 9.66663C10.0799 9.66663 11.3335 10.9202 11.3335 12.4666C11.3335 14.013 10.0799 15.2666 8.5335 15.2666Z" stroke="black" stroke-width="2.5"/>
<path d="M8.5332 19.9335H5.26654C4.40016 19.9335 3.56927 20.2285 2.95666 20.7536C2.34404 21.2787 1.99987 21.9909 1.99987 22.7335V25.5335H8.5332" stroke="black" stroke-width="2.5" stroke-linecap="round" stroke-linejoin="round"/>
<path d="M25.3332 18.0667V22.7333M25.3332 22.7333V27.4M25.3332 22.7333H29.9998M25.3332 22.7333H20.6665" stroke="black" stroke-width="2.5" stroke-linecap="round" stroke-linejoin="round"/>
<path d="M20.694 17.6275H17.0188C13.6073 17.6275 11.3335 20.4541 11.3335 23.9412V26.4667H20.694M24.4002 9.41961C24.4002 10 24.2883 10.5747 24.071 11.1109C23.8537 11.6471 23.5352 12.1343 23.1337 12.5447C22.7322 12.9551 22.2556 13.2807 21.731 13.5028C21.2064 13.7249 20.6441 13.8392 20.0763 13.8392C19.5085 13.8392 18.9462 13.7249 18.4216 13.5028C17.897 13.2807 17.4203 12.9551 17.0188 12.5447C16.6173 12.1343 16.2988 11.6471 16.0815 11.1109C15.8642 10.5747 15.7524 10 15.7524 9.41961C15.7524 8.24746 16.2079 7.12331 17.0188 6.29447C17.8297 5.46564 18.9295 5 20.0763 5C21.223 5 22.3228 5.46564 23.1337 6.29447C23.9446 7.12331 24.4002 8.24746 24.4002 9.41961Z" stroke="black" stroke-width="2.5" stroke-linecap="round" stroke-linejoin="round"/>
</svg>
