<svg width="32" height="32" viewBox="0 0 32 32" fill="none" xmlns="http://www.w3.org/2000/svg">
<path d="M29.8461 14.5436H17.3974V2.40741C17.3978 2.0347 17.2501 1.6771 16.9869 1.41319C16.7237 1.14929 16.3665 1.00068 15.9938 1.00001V1.00001C15.8086 0.999345 15.6251 1.03527 15.4539 1.10571C15.2826 1.17616 15.1269 1.27975 14.9958 1.41052C14.8647 1.54129 14.7607 1.69667 14.6898 1.86775C14.6189 2.03883 14.5825 2.22222 14.5826 2.40741V14.5436H2.4074C2.22253 14.5434 2.03945 14.5797 1.86862 14.6504C1.69779 14.7211 1.54257 14.8247 1.41185 14.9554C1.28113 15.0862 1.17747 15.2414 1.1068 15.4122C1.03613 15.583 0.999835 15.7661 1 15.951V15.951C0.999835 16.1359 1.03613 16.3189 1.1068 16.4898C1.17747 16.6606 1.28113 16.8158 1.41185 16.9465C1.54257 17.0773 1.69779 17.1809 1.86862 17.2516C2.03945 17.3223 2.22253 17.3586 2.4074 17.3584H14.5826V29.5336C14.5825 29.7188 14.6189 29.9022 14.6898 30.0733C14.7607 30.2444 14.8647 30.3998 14.9958 30.5305C15.1269 30.6613 15.2826 30.7649 15.4539 30.8353C15.6251 30.9058 15.8086 30.9417 15.9938 30.941V30.941C16.1787 30.9412 16.3618 30.9049 16.5326 30.8342C16.7034 30.7636 16.8587 30.6599 16.9894 30.5292C17.1201 30.3985 17.2238 30.2432 17.2944 30.0724C17.3651 29.9016 17.4014 29.7185 17.4012 29.5336V17.3584H29.8499C30.0347 17.3586 30.2178 17.3223 30.3887 17.2516C30.5595 17.1809 30.7147 17.0773 30.8454 16.9465C30.9761 16.8158 31.0798 16.6606 31.1505 16.4898C31.2212 16.3189 31.2574 16.1359 31.2573 15.951V15.951C31.2574 15.7658 31.221 15.5824 31.1501 15.4113C31.0792 15.2403 30.9752 15.0849 30.8441 14.9541C30.713 14.8233 30.5573 14.7197 30.386 14.6493C30.2148 14.5788 30.0313 14.5429 29.8461 14.5436Z" fill="black"/>
</svg>
