<svg width="32" height="32" viewBox="0 0 32 32" fill="none" xmlns="http://www.w3.org/2000/svg">
<path d="M29.4089 27.917H3.1479C2.57846 27.9162 2.03252 27.6898 1.62986 27.2871C1.2272 26.8845 1.00076 26.3385 1 25.7691V7.1479C1.00076 6.57846 1.2272 6.03275 1.62986 5.63009C2.03252 5.22743 2.57846 5.00076 3.1479 5H29.4089C29.9783 5.00076 30.5243 5.22743 30.9269 5.63009C31.3296 6.03275 31.556 6.57846 31.5568 7.1479V25.7691C31.556 26.3385 31.3296 26.8845 30.9269 27.2871C30.5243 27.6898 29.9783 27.9162 29.4089 27.917V27.917ZM3.1479 7.1479V25.7691H29.4089V7.1479H3.1479Z" fill="black"/>
<path d="M12.2209 24.0972H6.96878C6.399 24.0967 5.8527 23.8702 5.4498 23.4673C5.0469 23.0644 4.82033 22.5181 4.81982 21.9484V19.3211C4.81975 18.5401 5.0112 17.7712 5.37747 17.0814C5.74374 16.3916 6.27361 15.8023 6.92064 15.3649C6.5567 15.0103 6.26777 14.5861 6.07097 14.1176C5.87416 13.6492 5.77345 13.1458 5.77494 12.6376C5.77596 11.625 6.17865 10.6542 6.89457 9.93809C7.6105 9.22198 8.58129 8.81914 9.59389 8.81787C10.6066 8.81914 11.5774 9.22201 12.2935 9.93809C13.0095 10.6542 13.4124 11.625 13.4137 12.6376C13.4152 13.1458 13.3146 13.6492 13.1178 14.1176C12.9209 14.5861 12.632 15.0103 12.268 15.3649C12.9146 15.8026 13.444 16.3919 13.81 17.0816C14.1759 17.7714 14.3671 18.5403 14.3669 19.3211V21.9484C14.3664 22.5176 14.1403 23.0634 13.738 23.4662C13.3357 23.869 12.7902 24.0959 12.2209 24.0972V24.0972ZM9.59483 16.696C8.89892 16.697 8.23175 16.974 7.73967 17.4661C7.24758 17.9582 6.97074 18.6252 6.96972 19.3211C6.96972 19.3596 6.96972 19.402 6.96972 19.4404C6.96883 19.4504 6.96883 19.4603 6.96972 19.4703V21.7983C6.96947 21.818 6.97314 21.8376 6.98053 21.8558C6.98792 21.8741 6.99882 21.8905 7.0127 21.9044C7.02658 21.9184 7.0431 21.9296 7.06131 21.9371C7.07952 21.9446 7.09915 21.9485 7.11885 21.9484H12.0727C12.0924 21.9485 12.1119 21.9446 12.1301 21.9371C12.1483 21.9296 12.165 21.9184 12.1788 21.9044C12.1927 21.8905 12.2036 21.8741 12.211 21.8558C12.2184 21.8376 12.2221 21.818 12.2218 21.7983V19.4703C12.2237 19.4604 12.2237 19.4503 12.2218 19.4404C12.2218 19.4029 12.2218 19.3635 12.2218 19.3211C12.2208 18.6249 11.9437 17.9575 11.4512 17.4654C10.9587 16.9732 10.2911 16.6965 9.59483 16.696V16.696ZM9.59483 10.966C9.15168 10.9665 8.72682 11.1427 8.41356 11.4561C8.10029 11.7696 7.92416 12.1945 7.9239 12.6376C7.92467 13.0805 8.10105 13.5049 8.41426 13.818C8.72747 14.131 9.15201 14.3071 9.59483 14.3076C10.0377 14.3071 10.4622 14.131 10.7754 13.818C11.0886 13.5049 11.2649 13.0805 11.2656 12.6376C11.2654 12.1945 11.0894 11.7696 10.7761 11.4561C10.4628 11.1427 10.038 10.9665 9.59483 10.966V10.966Z" fill="black"/>
<path d="M17.3538 17.532H24.7539C25.0389 17.532 25.3122 17.4188 25.5137 17.2173C25.7152 17.0158 25.8284 16.7425 25.8284 16.4575C25.8284 16.1726 25.7152 15.8993 25.5137 15.6978C25.3122 15.4963 25.0389 15.3831 24.7539 15.3831H17.3538C17.0688 15.3831 16.7955 15.4963 16.594 15.6978C16.3925 15.8993 16.2793 16.1726 16.2793 16.4575C16.2793 16.7425 16.3925 17.0158 16.594 17.2173C16.7955 17.4188 17.0688 17.532 17.3538 17.532V17.532Z" fill="black"/>
<path d="M17.3538 22.4263H22.8445C23.1294 22.4263 23.4027 22.3131 23.6042 22.1116C23.8057 21.9101 23.9189 21.6368 23.9189 21.3518C23.9189 21.0669 23.8057 20.7936 23.6042 20.5921C23.4027 20.3905 23.1294 20.2773 22.8445 20.2773H17.3538C17.0688 20.2773 16.7955 20.3905 16.594 20.5921C16.3925 20.7936 16.2793 21.0669 16.2793 21.3518C16.2793 21.6368 16.3925 21.9101 16.594 22.1116C16.7955 22.3131 17.0688 22.4263 17.3538 22.4263V22.4263Z" fill="black"/>
<path d="M17.3538 12.6387H26.6681C26.9531 12.6387 27.2264 12.5255 27.4279 12.324C27.6294 12.1225 27.7426 11.8492 27.7426 11.5642C27.7426 11.2793 27.6294 11.006 27.4279 10.8045C27.2264 10.6029 26.9531 10.4897 26.6681 10.4897H17.3538C17.0688 10.4897 16.7955 10.6029 16.594 10.8045C16.3925 11.006 16.2793 11.2793 16.2793 11.5642C16.2793 11.8492 16.3925 12.1225 16.594 12.324C16.7955 12.5255 17.0688 12.6387 17.3538 12.6387V12.6387Z" fill="black"/>
</svg>
