<svg width="32" height="32" viewBox="0 0 32 32" fill="none" xmlns="http://www.w3.org/2000/svg">
<path d="M2.20319 31.0011C2.04515 31.0012 1.88863 30.9702 1.74258 30.9098C1.59654 30.8494 1.46385 30.7608 1.35209 30.649C1.24034 30.5373 1.15172 30.4046 1.0913 30.2585C1.03088 30.1125 0.999859 29.9559 1 29.7979V2.20427C1 1.88488 1.12688 1.57857 1.35272 1.35272C1.57857 1.12688 1.88488 1 2.20427 1C2.52366 1 2.82997 1.12688 3.05582 1.35272C3.28166 1.57857 3.40854 1.88488 3.40854 2.20427V28.5926H29.7634C30.0828 28.5926 30.3891 28.7194 30.615 28.9453C30.8408 29.1711 30.9677 29.4774 30.9677 29.7968C30.9677 30.1162 30.8408 30.4225 30.615 30.6484C30.3891 30.8742 30.0828 31.0011 29.7634 31.0011H2.20319ZM10.7635 23.1987L5.51197 14.8367C5.42546 14.7045 5.36585 14.5565 5.33653 14.4012C5.30722 14.2459 5.30877 14.0864 5.34111 13.9317C5.37345 13.7771 5.43593 13.6303 5.525 13.4997C5.61407 13.3692 5.72797 13.2575 5.86021 13.171C6.12727 12.9963 6.4528 12.9348 6.76518 13.0001C7.07756 13.0654 7.35121 13.2522 7.52592 13.5192L11.2854 19.6031L12.8098 13.6734C12.8543 13.5036 12.9352 13.3456 13.0469 13.2102C13.1586 13.0749 13.2984 12.9655 13.4567 12.8896L19.5438 9.94955C19.812 9.81965 20.1189 9.79382 20.4051 9.87706C20.6913 9.9603 20.9364 10.1467 21.0931 10.4002L24.1528 15.3596L28.6195 1.86358C28.7196 1.5602 28.9361 1.309 29.2214 1.16525C29.5067 1.02149 29.8374 0.996953 30.1407 1.09703C30.4441 1.19711 30.6953 1.41361 30.8391 1.69889C30.9828 1.98418 31.0074 2.31489 30.9073 2.61827L25.6245 18.5746C25.552 18.792 25.419 18.9842 25.2411 19.1286C25.0631 19.273 24.8477 19.3637 24.62 19.39C24.3924 19.4162 24.162 19.377 23.9558 19.2769C23.7497 19.1768 23.5764 19.0199 23.4564 18.8247L19.6107 12.5974L15.0049 14.8248L12.937 22.845C12.879 23.0711 12.7563 23.2754 12.584 23.4328C12.4116 23.5902 12.1971 23.6939 11.9667 23.7313C11.9015 23.7416 11.8355 23.747 11.7694 23.7474C11.5693 23.7472 11.3724 23.6969 11.1967 23.601C11.021 23.5052 10.8721 23.3668 10.7635 23.1987V23.1987Z" fill="black"/>
</svg>
