<svg width="32" height="32" viewBox="0 0 32 32" fill="none" xmlns="http://www.w3.org/2000/svg">
<path d="M10.9917 31C9.09604 31 7.66873 29.2055 6.25299 27.2006C4.75826 25.0182 3.74488 22.5552 3.27756 19.9686C2.68441 17.3036 3.04832 14.5202 4.308 12.0869C4.9447 10.9784 5.86358 10.0498 6.97539 9.39073C8.0872 8.7317 9.35427 8.36475 10.6538 8.32554H10.7319C11.8025 8.39133 12.851 8.65357 13.8223 9.09884C14.4191 9.38107 15.0609 9.5617 15.7199 9.63259C16.3566 9.55511 16.9763 9.37704 17.5548 9.10553C18.6723 8.60119 19.8762 8.30491 21.1048 8.23193C21.2564 8.23193 21.4157 8.23963 21.5876 8.25568C22.6944 8.29145 23.7774 8.57879 24.7508 9.09515C25.7243 9.61151 26.5614 10.3426 27.1956 11.2304L27.1762 11.2417C26.1813 11.8443 25.3581 12.6828 24.7828 13.6794C24.2075 14.676 23.8986 15.7986 23.885 16.943C23.8874 18.236 24.278 19.4998 25.0083 20.5777C25.7386 21.6557 26.7765 22.5003 27.9932 23.0067H28L27.9913 23.035C27.4942 24.538 26.7821 25.9646 25.8763 27.2725C24.6807 28.9818 23.3268 30.9186 21.182 30.9555H21.0854C20.2923 30.9385 19.5132 30.7468 18.8064 30.3945C17.9705 29.9862 17.0502 29.7704 16.1159 29.7637C15.1385 29.7706 14.1751 29.9929 13.2978 30.4143C12.6086 30.7481 11.8587 30.9452 11.0912 30.9942C11.0642 30.9999 11.0323 31 10.9917 31ZM10.6856 10.4361C9.78237 10.4531 8.9002 10.7059 8.13031 11.1681C7.32158 11.6554 6.65083 12.3333 6.17954 13.1399C5.66466 14.0515 5.34745 15.057 5.24766 16.0938C5.12895 17.2646 5.18162 18.446 5.40409 19.6022C5.8207 21.8886 6.71387 24.0669 8.02798 26.0014C8.56 26.8032 9.16883 27.5534 9.84637 28.2422C10.1451 28.5748 10.5472 28.8024 10.9908 28.8901H11.015C11.5183 28.8475 12.0079 28.7078 12.4558 28.4793H12.4645C13.6067 27.9486 14.8541 27.6698 16.1187 27.6624C17.3477 27.6681 18.5599 27.9421 19.6668 28.4643C20.104 28.6996 20.5908 28.8332 21.0893 28.8544H21.1405C21.6115 28.8185 22.0486 28.6014 22.3562 28.2508C23.009 27.5886 23.5914 26.8634 24.0946 26.0863C24.5692 25.4015 24.9831 24.6783 25.3317 23.9245C24.993 23.6755 24.6705 23.4062 24.3659 23.118C23.5247 22.3182 22.8573 21.3607 22.4037 20.3024C21.9502 19.2442 21.7198 18.1072 21.7266 16.9598C21.7133 15.8591 21.92 14.7665 22.335 13.7432C22.676 12.912 23.1457 12.1372 23.7276 11.4457C23.8126 11.3456 23.9131 11.2257 24.0222 11.1114C23.7863 10.969 23.5384 10.8465 23.2814 10.745C22.7125 10.5209 22.1094 10.3913 21.4969 10.3616H21.4331L21.3693 10.3549C21.2863 10.3474 21.1955 10.3436 21.0999 10.3436C20.1488 10.4249 19.2197 10.6694 18.3553 11.066L18.3399 11.0717C17.5138 11.4553 16.6215 11.6844 15.7093 11.7471C14.7758 11.6873 13.8624 11.4555 13.0169 11.0641C12.2964 10.7287 11.5221 10.5176 10.7281 10.44L10.6856 10.4361Z" fill="black"/>
<path d="M21.623 1C19.8773 1.16546 18.2618 1.9761 17.1064 3.2665C16.5456 3.90042 16.1215 4.63853 15.8595 5.4366C15.5975 6.23467 15.5029 7.07626 15.5815 7.91093C16.4412 7.92216 17.2916 7.73583 18.0642 7.36693C18.8368 6.99803 19.51 6.45687 20.0296 5.78703C21.1869 4.46004 21.7598 2.73891 21.623 1V1Z" fill="black"/>
</svg>
