<svg width="32" height="32" viewBox="0 0 32 32" fill="none" xmlns="http://www.w3.org/2000/svg">
<path d="M28.391 1H3.39095C2.75701 1.00057 2.14919 1.25265 1.70092 1.70092C1.25265 2.14919 1.00057 2.757 1 3.39095V28.3579C0.99972 28.6721 1.06134 28.9834 1.18134 29.2738C1.30135 29.5643 1.47739 29.8282 1.69941 30.0507C1.92143 30.2731 2.18508 30.4496 2.47532 30.5701C2.76555 30.6906 3.07669 30.7528 3.39095 30.7531H12.5877C12.7446 30.7531 12.9001 30.7222 13.0451 30.6621C13.1902 30.602 13.322 30.5139 13.433 30.4029C13.544 30.2919 13.632 30.1601 13.6921 30.0151C13.7522 29.8701 13.7831 29.7146 13.7831 29.5576C13.7831 29.4006 13.7522 29.2452 13.6921 29.1001C13.632 28.9551 13.544 28.8233 13.433 28.7123C13.322 28.6013 13.1902 28.5132 13.0451 28.4531C12.9001 28.3931 12.7446 28.3621 12.5877 28.3621H3.39095V3.39095H28.391V14.6789C28.391 14.8359 28.422 14.9914 28.482 15.1364C28.5421 15.2815 28.6302 15.4132 28.7412 15.5243C28.8522 15.6353 28.984 15.7233 29.129 15.7834C29.2741 15.8435 29.4295 15.8744 29.5865 15.8744C29.7435 15.8744 29.899 15.8435 30.044 15.7834C30.189 15.7233 30.3208 15.6353 30.4318 15.5243C30.5428 15.4132 30.6309 15.2815 30.691 15.1364C30.7511 14.9914 30.782 14.8359 30.782 14.6789V3.39095C30.7814 2.757 30.5293 2.14919 30.0811 1.70092C29.6328 1.25265 29.025 1.00057 28.391 1V1Z" fill="black"/>
<path d="M6.47746 22.5143C6.1604 22.5143 5.85632 22.3884 5.63213 22.1642C5.40793 21.94 5.28198 21.6359 5.28198 21.3189C5.28198 21.0018 5.40793 20.6977 5.63213 20.4735C5.85632 20.2493 6.1604 20.1234 6.47746 20.1234H12.5875C12.9046 20.1234 13.2087 20.2493 13.4329 20.4735C13.6571 20.6977 13.783 21.0018 13.783 21.3189C13.783 21.6359 13.6571 21.94 13.4329 22.1642C13.2087 22.3884 12.9046 22.5143 12.5875 22.5143H6.47746ZM6.47746 16.1399C6.1604 16.1399 5.85632 16.0139 5.63213 15.7898C5.40793 15.5656 5.28198 15.2615 5.28198 14.9444C5.28198 14.6274 5.40793 14.3233 5.63213 14.0991C5.85632 13.8749 6.1604 13.7489 6.47746 13.7489H12.5875C12.9046 13.7489 13.2087 13.8749 13.4329 14.0991C13.6571 14.3233 13.783 14.6274 13.783 14.9444C13.783 15.2615 13.6571 15.5656 13.4329 15.7898C13.2087 16.0139 12.9046 16.1399 12.5875 16.1399H6.47746ZM6.47746 9.76546C6.1604 9.76546 5.85632 9.63951 5.63213 9.41531C5.40793 9.19112 5.28198 8.88705 5.28198 8.56999C5.28198 8.25293 5.40793 7.94885 5.63213 7.72466C5.85632 7.50046 6.1604 7.37451 6.47746 7.37451H16.8365C17.1535 7.37451 17.4576 7.50046 17.6818 7.72466C17.906 7.94885 18.0319 8.25293 18.0319 8.56999C18.0319 8.88705 17.906 9.19112 17.6818 9.41531C17.4576 9.63951 17.1535 9.76546 16.8365 9.76546H6.47746Z" fill="black"/>
<path d="M16.8206 28.2714C16.8206 26.3941 18.3428 25.2495 20.2202 25.2495H26.264C28.1413 25.2495 29.6636 26.3941 29.6636 28.2714V29.4046C29.6636 29.5048 29.6238 29.6009 29.553 29.6717C29.4821 29.7426 29.3861 29.7824 29.2859 29.7824H17.1983C17.0981 29.7824 17.002 29.7426 16.9312 29.6717C16.8604 29.6009 16.8206 29.5048 16.8206 29.4046V28.2714Z" stroke="black" stroke-width="2.5"/>
<path d="M23.2421 22.9832C24.9111 22.9832 26.264 21.6303 26.264 19.9613C26.264 18.2924 24.9111 16.9395 23.2421 16.9395C21.5732 16.9395 20.2202 18.2924 20.2202 19.9613C20.2202 21.6303 21.5732 22.9832 23.2421 22.9832Z" stroke="black" stroke-width="2.5"/>
</svg>
