<svg width="32" height="33" viewBox="0 0 32 33" fill="none" xmlns="http://www.w3.org/2000/svg">
<path d="M28.9197 27.9999C28.912 27.9999 28.9046 27.9969 28.8991 27.9914C28.8937 27.986 28.8906 27.9786 28.8906 27.9709V5.52901C28.8906 5.5213 28.8937 5.51391 28.8991 5.50846C28.9046 5.50301 28.912 5.49995 28.9197 5.49995H30.9709C30.9786 5.50018 30.9858 5.50332 30.9912 5.50872C30.9966 5.51412 30.9998 5.52138 31 5.52901V27.9709C31 27.9786 30.9969 27.986 30.9915 27.9914C30.986 27.9969 30.9786 27.9999 30.9709 27.9999H28.9197ZM20.8038 27.9999C20.7961 27.9997 20.7889 27.9966 20.7835 27.9912C20.7781 27.9858 20.7749 27.9785 20.7747 27.9709V25.9196C20.7746 25.9158 20.7752 25.9119 20.7766 25.9084C20.778 25.9048 20.7802 25.9015 20.7829 25.8988C20.7856 25.8961 20.7889 25.8939 20.7925 25.8925C20.7961 25.8911 20.7999 25.8904 20.8038 25.8906H27.835C27.8389 25.8903 27.8428 25.8909 27.8464 25.8922C27.8501 25.8936 27.8534 25.8957 27.8562 25.8985C27.8589 25.9012 27.8611 25.9045 27.8624 25.9082C27.8638 25.9118 27.8643 25.9157 27.8641 25.9196V27.9709C27.8643 27.9748 27.8638 27.9787 27.8624 27.9823C27.8611 27.986 27.8589 27.9893 27.8562 27.9921C27.8534 27.9948 27.8501 27.9969 27.8464 27.9983C27.8428 27.9997 27.8389 28.0002 27.835 27.9999H20.8038ZM17.6988 27.9999C17.691 27.9999 17.6836 27.9969 17.6782 27.9914C17.6727 27.986 17.6697 27.9786 17.6697 27.9709V25.9196C17.6697 25.9119 17.6727 25.9045 17.6782 25.8991C17.6836 25.8936 17.691 25.8906 17.6988 25.8906H19.75C19.7539 25.8904 19.7577 25.8911 19.7613 25.8925C19.7649 25.8939 19.7681 25.8961 19.7708 25.8988C19.7736 25.9015 19.7757 25.9048 19.7771 25.9084C19.7785 25.9119 19.7792 25.9158 19.7791 25.9196V27.9709C19.7791 27.9747 19.7783 27.9785 19.7769 27.982C19.7754 27.9855 19.7732 27.9887 19.7706 27.9914C19.7679 27.9941 19.7646 27.9963 19.7611 27.9977C19.7576 27.9992 19.7538 27.9999 19.75 27.9999H17.6988ZM14.5938 27.9999C14.5861 27.9997 14.5789 27.9966 14.5735 27.9912C14.5681 27.9858 14.5649 27.9785 14.5647 27.9709V25.9196C14.5647 25.9119 14.5677 25.9045 14.5732 25.8991C14.5787 25.8936 14.586 25.8906 14.5938 25.8906H16.645C16.6489 25.8903 16.6528 25.8909 16.6564 25.8922C16.6601 25.8936 16.6634 25.8957 16.6662 25.8985C16.6689 25.9012 16.6711 25.9045 16.6724 25.9082C16.6738 25.9118 16.6743 25.9157 16.6741 25.9196V27.9709C16.6741 27.9786 16.671 27.986 16.6656 27.9914C16.6601 27.9969 16.6527 27.9999 16.645 27.9999H14.5938ZM7.27 27.9999C7.26229 27.9999 7.2549 27.9969 7.24945 27.9914C7.244 27.986 7.24094 27.9786 7.24094 27.9709V25.9196C7.24066 25.9157 7.24122 25.9118 7.24258 25.9082C7.24394 25.9045 7.24607 25.9012 7.24883 25.8985C7.25159 25.8957 7.2549 25.8936 7.25856 25.8922C7.26221 25.8909 7.26611 25.8903 7.27 25.8906H13.54C13.5439 25.8904 13.5477 25.8911 13.5513 25.8925C13.5549 25.8939 13.5581 25.8961 13.5608 25.8988C13.5636 25.9015 13.5657 25.9048 13.5671 25.9084C13.5685 25.9119 13.5692 25.9158 13.5691 25.9196V27.9709C13.5692 27.9747 13.5685 27.9786 13.5671 27.9822C13.5657 27.9857 13.5636 27.989 13.5608 27.9917C13.5581 27.9945 13.5549 27.9966 13.5513 27.998C13.5477 27.9994 13.5439 28.0001 13.54 27.9999H7.27ZM4.16313 27.9999C4.15549 27.9997 4.14824 27.9966 4.14284 27.9912C4.13743 27.9858 4.1343 27.9785 4.13406 27.9709V25.9196C4.13406 25.9119 4.13712 25.9045 4.14257 25.8991C4.14802 25.8936 4.15542 25.8906 4.16313 25.8906H6.21437C6.21826 25.8903 6.22217 25.8909 6.22582 25.8922C6.22947 25.8936 6.23279 25.8957 6.23554 25.8985C6.2383 25.9012 6.24043 25.9045 6.24179 25.9082C6.24316 25.9118 6.24372 25.9157 6.24344 25.9196V27.9709C6.24344 27.9747 6.24269 27.9785 6.24123 27.982C6.23976 27.9855 6.23762 27.9887 6.23493 27.9914C6.23223 27.9941 6.22902 27.9963 6.2255 27.9977C6.22197 27.9992 6.21819 27.9999 6.21437 27.9999H4.16313ZM1.02906 27.9999C1.02135 27.9999 1.01396 27.9969 1.00851 27.9914C1.00306 27.986 1 27.9786 1 27.9709V5.52901C1 5.5213 1.00306 5.51391 1.00851 5.50846C1.01396 5.50301 1.02135 5.49995 1.02906 5.49995H3.08031C3.08802 5.49995 3.09541 5.50301 3.10086 5.50846C3.10631 5.51391 3.10937 5.5213 3.10938 5.52901V27.9709C3.10937 27.9786 3.10631 27.986 3.10086 27.9914C3.09541 27.9969 3.08802 27.9999 3.08031 27.9999H1.02906ZM26.8394 24.2499C26.8317 24.2499 26.8243 24.2469 26.8188 24.2414C26.8134 24.236 26.8103 24.2286 26.8103 24.2209V5.52901C26.8103 5.52519 26.8111 5.52141 26.8125 5.51789C26.814 5.51436 26.8161 5.51116 26.8188 5.50846C26.8215 5.50576 26.8247 5.50362 26.8283 5.50216C26.8318 5.5007 26.8356 5.49995 26.8394 5.49995H27.835C27.8389 5.49967 27.8428 5.50023 27.8464 5.50159C27.8501 5.50295 27.8534 5.50508 27.8562 5.50784C27.8589 5.5106 27.8611 5.51391 27.8624 5.51757C27.8638 5.52122 27.8643 5.52512 27.8641 5.52901V24.2209C27.8638 24.2285 27.8607 24.2358 27.8553 24.2412C27.8499 24.2466 27.8426 24.2497 27.835 24.2499H26.8394ZM24.7881 24.2499C24.7843 24.2501 24.7804 24.2494 24.7769 24.248C24.7733 24.2466 24.77 24.2445 24.7673 24.2417C24.7646 24.239 24.7624 24.2357 24.761 24.2322C24.7596 24.2286 24.7589 24.2247 24.7591 24.2209V5.52901C24.7591 5.52511 24.7598 5.52126 24.7614 5.51767C24.7629 5.51408 24.7651 5.51083 24.7679 5.50812C24.7707 5.50541 24.774 5.50329 24.7777 5.50188C24.7813 5.50048 24.7852 5.49982 24.7891 5.49995H25.7847C25.7924 5.49995 25.7998 5.50301 25.8052 5.50846C25.8107 5.51391 25.8138 5.5213 25.8138 5.52901V24.2209C25.8135 24.2285 25.8104 24.2358 25.805 24.2412C25.7996 24.2466 25.7923 24.2497 25.7847 24.2499H24.7881ZM21.6822 24.2499C21.6783 24.2501 21.6745 24.2494 21.6709 24.248C21.6673 24.2466 21.6641 24.2445 21.6613 24.2417C21.6586 24.239 21.6565 24.2357 21.6551 24.2322C21.6537 24.2286 21.653 24.2247 21.6531 24.2209V5.52901C21.6531 5.52511 21.6539 5.52126 21.6554 5.51767C21.6569 5.51408 21.6592 5.51083 21.662 5.50812C21.6648 5.50541 21.6681 5.50329 21.6717 5.50188C21.6754 5.50048 21.6792 5.49982 21.6831 5.49995H23.7344C23.7421 5.49995 23.7495 5.50301 23.7549 5.50846C23.7604 5.51391 23.7634 5.5213 23.7634 5.52901V24.2209C23.7632 24.2285 23.7601 24.2358 23.7547 24.2412C23.7493 24.2466 23.742 24.2497 23.7344 24.2499H21.6822ZM19.6309 24.2499C19.6233 24.2497 19.616 24.2466 19.6106 24.2412C19.6052 24.2358 19.6021 24.2285 19.6019 24.2209V5.52901C19.6019 5.52511 19.6027 5.52126 19.6042 5.51767C19.6057 5.51408 19.6079 5.51083 19.6107 5.50812C19.6135 5.50541 19.6168 5.50329 19.6205 5.50188C19.6241 5.50048 19.628 5.49982 19.6319 5.49995H20.6284C20.6323 5.49967 20.6362 5.50023 20.6399 5.50159C20.6435 5.50295 20.6468 5.50508 20.6496 5.50784C20.6524 5.5106 20.6545 5.51391 20.6559 5.51757C20.6572 5.52122 20.6578 5.52512 20.6575 5.52901V24.2209C20.6573 24.2285 20.6541 24.2358 20.6487 24.2412C20.6433 24.2466 20.6361 24.2497 20.6284 24.2499H19.6309ZM16.5259 24.2499C16.5221 24.2501 16.5182 24.2494 16.5147 24.248C16.5111 24.2466 16.5078 24.2445 16.5051 24.2417C16.5024 24.239 16.5002 24.2357 16.4988 24.2322C16.4974 24.2286 16.4967 24.2247 16.4969 24.2209V5.52901C16.4969 5.52511 16.4977 5.52126 16.4992 5.51767C16.5007 5.51408 16.5029 5.51083 16.5057 5.50812C16.5085 5.50541 16.5118 5.50329 16.5155 5.50188C16.5191 5.50048 16.523 5.49982 16.5269 5.49995H18.5781C18.5858 5.49995 18.5932 5.50301 18.5987 5.50846C18.6041 5.51391 18.6072 5.5213 18.6072 5.52901V24.2209C18.607 24.2285 18.6038 24.2358 18.5984 24.2412C18.593 24.2466 18.5858 24.2497 18.5781 24.2499H16.5259ZM13.4219 24.2499C13.418 24.2501 13.4142 24.2494 13.4106 24.248C13.407 24.2466 13.4038 24.2445 13.401 24.2417C13.3983 24.239 13.3962 24.2357 13.3948 24.2322C13.3933 24.2286 13.3927 24.2247 13.3928 24.2209V5.52901C13.3928 5.52519 13.3936 5.52141 13.395 5.51789C13.3965 5.51436 13.3986 5.51116 13.4013 5.50846C13.404 5.50576 13.4072 5.50362 13.4108 5.50216C13.4143 5.5007 13.4181 5.49995 13.4219 5.49995H15.4731C15.4808 5.50018 15.488 5.50332 15.4934 5.50872C15.4988 5.51412 15.502 5.52138 15.5022 5.52901V24.2209C15.502 24.2285 15.4988 24.2358 15.4934 24.2412C15.488 24.2466 15.4808 24.2497 15.4731 24.2499H13.4219ZM11.3706 24.2499C11.3668 24.2501 11.3629 24.2494 11.3594 24.248C11.3558 24.2466 11.3525 24.2445 11.3498 24.2417C11.3471 24.239 11.3449 24.2357 11.3435 24.2322C11.3421 24.2286 11.3414 24.2247 11.3416 24.2209V5.52901C11.3416 5.52511 11.3423 5.52126 11.3439 5.51767C11.3454 5.51408 11.3476 5.51083 11.3504 5.50812C11.3532 5.50541 11.3565 5.50329 11.3602 5.50188C11.3638 5.50048 11.3677 5.49982 11.3716 5.49995H12.3672C12.3749 5.49995 12.3823 5.50301 12.3877 5.50846C12.3932 5.51391 12.3963 5.5213 12.3963 5.52901V24.2209C12.396 24.2285 12.3929 24.2358 12.3875 24.2412C12.3821 24.2466 12.3748 24.2497 12.3672 24.2499H11.3706ZM8.26562 24.2499C8.26177 24.2501 8.25794 24.2494 8.25435 24.248C8.25077 24.2466 8.24751 24.2445 8.24478 24.2417C8.24206 24.239 8.23992 24.2357 8.23851 24.2322C8.23709 24.2286 8.23643 24.2247 8.23656 24.2209V5.52901C8.23656 5.5213 8.23962 5.51391 8.24507 5.50846C8.25053 5.50301 8.25792 5.49995 8.26562 5.49995H10.3159C10.3236 5.49995 10.331 5.50301 10.3365 5.50846C10.3419 5.51391 10.345 5.5213 10.345 5.52901V24.2209C10.3448 24.2285 10.3416 24.2358 10.3362 24.2412C10.3308 24.2466 10.3236 24.2497 10.3159 24.2499H8.26562ZM6.21437 24.2499C6.20674 24.2497 6.19949 24.2466 6.19409 24.2412C6.18869 24.2358 6.18555 24.2285 6.18531 24.2209V5.52901C6.18531 5.5213 6.18837 5.51391 6.19382 5.50846C6.19927 5.50301 6.20667 5.49995 6.21437 5.49995H7.21094C7.21857 5.50018 7.22583 5.50332 7.23123 5.50872C7.23663 5.51412 7.23977 5.52138 7.24 5.52901V24.2209C7.23977 24.2285 7.23663 24.2358 7.23123 24.2412C7.22583 24.2466 7.21857 24.2497 7.21094 24.2499H6.21437ZM4.16313 24.2499C4.15927 24.2501 4.15544 24.2494 4.15185 24.248C4.14827 24.2466 4.14501 24.2445 4.14228 24.2417C4.13956 24.239 4.13742 24.2357 4.13601 24.2322C4.13459 24.2286 4.13393 24.2247 4.13406 24.2209V5.52901C4.13406 5.5213 4.13712 5.51391 4.14257 5.50846C4.14802 5.50301 4.15542 5.49995 4.16313 5.49995H5.16063C5.16833 5.49995 5.17573 5.50301 5.18118 5.50846C5.18663 5.51391 5.18969 5.5213 5.18969 5.52901V24.2209C5.18945 24.2285 5.18631 24.2358 5.18091 24.2412C5.17551 24.2466 5.16826 24.2497 5.16063 24.2499H4.16313Z" fill="black"/>
</svg>
